<?xml version="1.0" standalone="no"?>
<!DOCTYPE svg PUBLIC "-//W3C//DTD SVG 20010904//EN"
 "http://www.w3.org/TR/2001/REC-SVG-20010904/DTD/svg10.dtd">
<svg version="1.0" xmlns="http://www.w3.org/2000/svg"
 width="700.000000pt" height="700.000000pt" viewBox="0 0 700.000000 700.000000"
 preserveAspectRatio="xMidYMid meet">
<metadata>
Created by potrace 1.11, written by Peter Selinger 2001-2013
</metadata>
<g transform="translate(0.000000,700.000000) scale(0.100000,-0.100000)"
fill="#000000" stroke="none">
<path d="M3290 6994 c-19 -2 -87 -9 -150 -15 -647 -61 -1294 -326 -1825 -746
-141 -111 -437 -407 -548 -548 -413 -521 -662 -1120 -744 -1785 -24 -200 -24
-600 0 -800 82 -665 331 -1264 744 -1785 111 -141 407 -437 548 -548 468 -371
1016 -617 1598 -716 123 -22 383 -48 391 -40 4 4 28 229 45 439 23 265 33 557
28 765 -10 377 -60 574 -160 635 -46 28 -85 25 -160 -15 -75 -40 -97 -43 -120
-17 -39 43 -11 92 71 122 115 44 234 10 309 -88 18 -24 33 -41 33 -37 0 16
-65 215 -92 279 -59 143 -110 177 -265 177 -297 -1 -517 -153 -615 -426 l-18
-50 5 69 c5 82 48 181 113 263 50 63 156 145 234 181 32 15 58 29 58 32 0 11
-298 83 -362 88 -108 8 -199 -41 -234 -125 -19 -45 -17 -69 8 -114 36 -65 123
-83 166 -33 25 29 27 74 3 82 -10 3 -12 0 -8 -11 9 -23 -19 -43 -38 -27 -21
18 -19 57 4 70 80 42 138 -64 75 -139 -53 -63 -155 -62 -212 3 -85 97 -56 231
63 302 25 14 44 28 42 30 -13 13 -333 66 -426 71 -128 7 -128 18 2 26 119 8
360 -6 811 -49 208 -19 381 -33 384 -30 11 12 -97 175 -158 237 -71 72 -128
99 -207 99 -58 0 -98 -19 -158 -74 -56 -52 -83 -63 -114 -47 -57 31 -29 106
56 148 51 24 69 28 143 27 79 -1 117 -10 214 -49 21 -9 -102 163 -245 340
-240 300 -408 426 -525 394 -47 -14 -99 -67 -114 -116 -12 -39 -11 -46 11 -89
16 -32 37 -54 62 -67 38 -20 39 -20 65 0 32 24 40 58 16 67 -11 4 -22 -1 -31
-14 -11 -16 -18 -18 -28 -10 -35 29 31 83 74 61 48 -26 53 -80 12 -122 -57
-57 -159 -31 -202 52 -31 61 -24 152 15 204 34 45 95 74 154 75 23 0 42 3 41
8 -1 19 -331 287 -507 411 -52 36 -89 67 -83 69 45 15 252 -73 401 -171 46
-31 86 -55 87 -53 1 1 -9 31 -24 66 -50 125 -38 269 28 324 32 28 77 34 97 14
26 -26 7 -92 -38 -133 -12 -11 -28 -35 -36 -54 -52 -124 57 -287 396 -594 85
-77 186 -170 224 -206 41 -40 66 -58 63 -46 -89 319 -158 834 -130 960 9 39
10 39 17 -35 12 -125 102 -546 105 -494 2 27 84 104 122 114 87 24 158 -24
167 -110 5 -59 -13 -95 -60 -114 -38 -17 -65 -10 -84 20 -30 45 18 97 55 59
15 -15 15 -17 -3 -31 -19 -13 -19 -14 7 -14 31 0 47 24 47 74 0 76 -99 103
-164 45 -56 -49 -71 -138 -41 -252 26 -101 126 -359 178 -461 27 -54 115 -196
195 -315 79 -119 157 -241 173 -271 l28 -55 0 530 c1 1197 -27 1304 -460 1746
-150 152 -203 187 -307 196 -189 17 -316 -144 -203 -257 34 -35 103 -47 137
-25 32 21 34 75 4 75 -13 0 -24 -10 -30 -25 -5 -14 -14 -25 -20 -25 -17 0 -23
29 -12 55 23 49 102 41 123 -12 21 -57 -16 -108 -87 -119 -158 -23 -262 170
-164 305 47 65 98 86 207 86 85 0 91 1 75 16 -9 9 -70 62 -135 118 -65 55
-112 101 -106 101 21 0 211 -103 307 -167 238 -159 472 -388 610 -596 l47 -70
7 99 c37 489 83 800 149 993 l19 56 -6 -73 c-7 -98 -4 -703 4 -872 l7 -135 22
35 c48 77 167 140 263 140 113 0 196 -72 144 -124 -22 -23 -62 -20 -140 10
-161 61 -236 -18 -254 -266 -7 -95 5 -489 18 -609 l7 -64 39 59 c45 69 93 130
269 347 344 422 444 627 378 773 -40 88 -150 123 -239 75 -53 -28 -70 -130
-29 -169 27 -25 79 -29 97 -7 15 18 6 45 -15 45 -8 0 -15 9 -15 20 0 30 44 26
68 -5 16 -20 19 -32 12 -55 -12 -43 -17 -47 -55 -60 -30 -10 -41 -9 -72 7 -46
22 -83 75 -83 117 0 51 40 118 85 143 55 31 144 31 205 1 74 -38 110 -110 110
-223 l0 -60 62 70 c106 120 308 322 356 356 55 40 66 59 -149 -251 -262 -378
-458 -675 -447 -679 5 -2 44 2 86 8 267 38 943 60 1176 37 97 -9 101 -26 6
-26 -62 0 -318 -19 -338 -26 -7 -2 4 -18 29 -41 54 -49 79 -103 79 -173 0 -97
-49 -170 -105 -156 -36 9 -39 39 -11 103 47 101 47 163 0 206 -43 40 -95 50
-218 42 -343 -20 -598 -68 -751 -141 -84 -39 -168 -120 -98 -93 42 16 135 14
168 -4 33 -17 77 -61 94 -94 19 -38 14 -116 -12 -154 -29 -43 -60 -59 -118
-59 -62 0 -99 28 -99 76 0 35 28 74 54 74 21 0 46 -28 46 -51 0 -13 -7 -19
-24 -19 -13 0 -27 6 -29 13 -3 6 -6 3 -6 -8 -1 -30 18 -45 57 -45 44 0 68 14
87 50 31 60 6 138 -56 172 -49 28 -142 20 -205 -17 -94 -55 -177 -152 -243
-282 -62 -124 -110 -304 -111 -418 l0 -50 31 38 c50 60 100 82 194 82 84 0
139 -19 177 -62 27 -29 33 -76 13 -96 -26 -27 -51 -20 -106 29 -67 60 -90 67
-154 54 -84 -18 -128 -77 -145 -202 -12 -82 -9 -142 25 -508 13 -140 27 -290
30 -332 l7 -78 116 107 c65 59 167 157 227 218 100 99 116 120 163 215 59 119
103 275 123 440 13 102 14 104 20 55 16 -115 8 -340 -17 -474 l-7 -35 94 66
c115 80 228 149 469 285 302 172 360 222 360 311 0 37 -6 50 -34 78 -20 20
-44 34 -58 34 -52 0 -99 -61 -78 -101 6 -10 16 -19 23 -19 8 0 8 3 -2 9 -17
11 -6 31 18 31 30 0 46 -26 33 -55 -11 -23 -26 -30 -62 -26 -28 4 -50 42 -50
86 0 35 6 49 30 74 65 65 176 43 211 -42 15 -36 14 -118 -1 -147 -6 -12 -9
-24 -6 -27 2 -3 32 5 66 16 71 25 165 39 199 31 19 -4 8 -11 -60 -37 -94 -36
-255 -123 -396 -215 -51 -33 -93 -61 -93 -62 0 -1 26 1 58 4 107 10 227 -25
277 -80 22 -25 29 -72 12 -94 -28 -38 -71 -25 -141 42 -71 68 -98 82 -159 82
-153 -1 -382 -148 -681 -440 -134 -131 -376 -390 -376 -402 0 -2 30 -2 68 0
78 4 123 -11 169 -58 49 -51 63 -140 30 -205 -45 -93 -169 -110 -213 -30 -18
34 -18 35 2 62 37 49 120 30 100 -22 -6 -16 -8 -17 -24 -1 -36 32 -64 11 -38
-29 24 -37 69 -34 111 8 44 44 55 98 29 146 -64 119 -223 106 -355 -29 -87
-89 -100 -122 -119 -308 -10 -95 -15 -1271 -5 -1280 3 -3 62 0 132 7 664 64
1304 325 1838 748 141 111 437 407 548 548 413 521 662 1120 744 1785 24 200
24 600 0 800 -82 665 -331 1264 -744 1785 -111 141 -407 437 -548 548 -518
410 -1123 663 -1775 742 -126 15 -542 28 -620 19z m29 -1268 c118 -75 146
-201 85 -388 l-15 -46 -22 22 c-13 13 -54 41 -92 63 -72 42 -113 79 -136 123
-20 38 -16 146 9 227 l22 72 55 -24 c30 -14 72 -36 94 -49z m754 -2 c13 -5 12
-13 -8 -52 -27 -55 -47 -123 -70 -242 -10 -47 -26 -110 -38 -140 -27 -74 -101
-150 -178 -184 -64 -29 -201 -61 -223 -53 -20 8 -32 237 -17 340 26 185 119
290 286 323 64 13 223 18 248 8z m268 -142 c93 -84 119 -182 80 -300 -18 -53
-81 -175 -100 -195 -5 -5 -13 11 -19 35 -14 52 -29 76 -109 167 -97 110 -103
181 -32 327 l32 64 50 -28 c28 -15 72 -46 98 -70z m-1761 -54 c73 -92 97 -158
80 -219 -6 -18 -32 -69 -59 -114 -27 -44 -52 -90 -56 -102 -10 -35 -29 -28
-83 32 -114 124 -108 288 16 410 25 25 49 45 53 45 4 0 26 -24 49 -52z m384
-73 c220 -59 343 -202 366 -430 8 -81 -1 -247 -21 -361 l-11 -61 -50 53 c-32
34 -78 67 -131 95 -279 144 -347 211 -383 378 -14 68 -19 247 -7 315 l6 39 86
-6 c47 -3 112 -13 145 -22z m1857 -88 c76 -95 97 -192 59 -267 -18 -35 -122
-130 -142 -130 -5 0 -8 14 -8 30 0 17 -11 56 -24 88 -37 92 -40 125 -17 177
18 41 88 134 101 135 3 0 17 -15 31 -33z m-713 -197 c62 -14 118 -59 132 -108
13 -49 13 -126 -2 -173 -12 -42 -19 -47 -38 -25 -6 8 -40 25 -76 36 -107 36
-144 92 -144 219 l0 61 40 0 c21 0 61 -5 88 -10z m-1892 -41 c32 -12 80 -36
105 -53 44 -30 129 -102 129 -110 0 -2 -18 -6 -39 -9 -22 -3 -95 -31 -163 -63
-106 -50 -133 -58 -195 -62 -85 -5 -122 6 -200 58 -87 58 -95 66 -89 87 8 24
82 100 126 129 85 56 212 65 326 23z m2375 -14 c12 -56 9 -161 -6 -212 -15
-51 -46 -85 -153 -171 -30 -24 -46 -46 -56 -80 l-14 -47 -21 50 c-80 182 -36
394 94 463 39 20 83 31 120 29 25 -2 31 -7 36 -32z m-711 -165 c113 -15 112
-15 90 -53 -10 -18 -23 -51 -30 -75 -45 -171 -128 -234 -367 -276 l-33 -5 0
92 c0 103 20 194 51 238 26 37 89 70 154 79 27 4 52 8 55 8 3 1 39 -3 80 -8z
m1298 -46 c47 -14 152 -73 152 -86 0 -4 -6 -8 -13 -8 -28 0 -107 -63 -148
-118 -66 -88 -140 -162 -182 -184 -82 -41 -216 -42 -353 -2 -64 18 -64 16 -7
133 24 50 56 95 102 141 127 129 285 173 449 124z m-3274 -103 c26 -11 49 -27
52 -35 9 -23 -25 -85 -63 -113 -66 -51 -202 -39 -280 23 l-27 22 28 40 c25 36
61 60 126 86 27 10 118 -2 164 -23z m361 -4 c-9 -14 -19 -66 -25 -125 -5 -56
-16 -116 -23 -134 -19 -45 -69 -94 -128 -123 l-48 -25 -16 24 c-28 42 -55 124
-55 165 0 72 35 127 108 173 38 23 158 67 185 68 16 0 16 -2 2 -23z m545 -139
c36 -25 104 -128 92 -140 -15 -15 -124 -37 -155 -31 -58 10 -100 46 -138 116
l-20 38 33 13 c57 23 62 24 109 25 32 1 56 -6 79 -21z m2608 -115 c-7 -165
-53 -261 -163 -345 -92 -70 -206 -101 -357 -96 l-93 3 59 29 c73 36 109 84
152 205 47 134 79 173 194 243 21 13 50 23 170 62 41 13 42 10 38 -101z
m-3721 -38 c176 -105 231 -239 157 -381 l-32 -59 -46 2 c-120 4 -225 78 -266
188 -24 65 -33 206 -17 297 l8 47 68 -29 c38 -16 95 -45 128 -65z m1304 -100
c47 -106 53 -229 16 -302 -35 -67 -165 -157 -258 -179 -25 -5 -29 -2 -50 53
-33 83 -34 249 -2 309 33 62 106 121 177 144 89 28 94 27 117 -25z m1754 -10
c60 -25 125 -59 125 -67 0 -17 -135 -141 -173 -158 -47 -22 -113 -25 -171 -9
-69 19 -138 27 -172 19 -19 -4 -34 -6 -34 -4 0 3 11 27 25 55 44 85 119 156
193 180 39 12 160 3 207 -16z m-2303 -17 c55 -42 73 -89 73 -190 0 -47 -3 -90
-8 -94 -4 -4 -17 2 -30 13 -12 11 -50 37 -85 57 -43 26 -69 50 -86 79 -25 43
-43 137 -31 158 5 7 30 10 70 7 48 -3 70 -10 97 -30z m1592 -45 c-20 -86 -58
-186 -91 -242 -42 -70 -90 -115 -209 -194 -43 -28 -93 -71 -111 -94 l-32 -43
-8 48 c-13 82 -8 242 10 304 46 151 192 240 410 247 36 1 37 0 31 -26z m1586
-43 c0 -73 -21 -141 -54 -176 -36 -40 -104 -57 -185 -47 l-51 6 0 48 c0 114
55 169 194 194 101 19 96 20 96 -25z m-3250 -219 c88 -33 160 -119 189 -226 8
-31 51 -359 51 -392 0 -3 -17 10 -38 29 -21 19 -93 72 -160 117 -67 45 -135
100 -152 121 -62 78 -109 222 -110 334 l0 49 83 -6 c46 -3 106 -14 137 -26z
m813 -80 c26 -13 56 -36 68 -52 l21 -30 -36 -44 c-80 -97 -153 -112 -265 -55
-35 17 -79 32 -97 33 -19 1 -34 5 -34 8 0 3 14 26 30 51 71 108 199 144 313
89z m-1640 3 c43 -14 138 -87 127 -96 -134 -109 -201 -147 -257 -148 -34 0
-127 31 -157 53 -17 13 -17 15 3 55 46 90 128 152 202 152 19 0 56 -7 82 -16z
m4020 -64 c32 -12 75 -36 94 -53 42 -37 83 -118 83 -164 0 -31 -2 -33 -32 -33
-18 0 -71 -7 -118 -15 -118 -21 -175 -19 -228 6 -67 33 -126 130 -147 242 -7
35 -7 36 32 40 21 3 88 4 148 2 84 -2 124 -8 168 -25z m-759 -59 c73 -26 206
-101 206 -116 0 -27 -75 -96 -138 -127 -57 -28 -79 -34 -153 -36 -107 -5 -172
12 -256 67 -33 21 -79 63 -101 92 l-41 54 54 7 c29 4 82 19 117 34 142 60 199
65 312 25z m-2929 -110 c56 -26 155 -117 155 -142 0 -5 -15 -9 -33 -9 -20 0
-68 -20 -132 -56 -127 -71 -164 -84 -234 -84 -69 0 -133 29 -205 92 l-49 44
58 52 c97 88 195 130 310 131 57 1 81 -4 130 -28z m1344 -179 c50 -188 48
-312 -7 -402 -15 -24 -61 -73 -102 -107 -41 -34 -85 -80 -97 -103 l-21 -40
-30 73 c-46 108 -55 157 -50 261 3 83 8 102 40 167 22 43 57 94 85 121 49 49
129 106 149 107 7 1 21 -34 33 -77z m1114 53 c20 -8 59 -15 87 -15 59 0 114
-20 128 -47 5 -10 12 -34 16 -54 6 -36 5 -37 -36 -54 -122 -50 -222 4 -235
128 -3 31 -3 57 -1 57 3 0 22 -7 41 -15z m1392 -161 c15 -222 -45 -367 -178
-424 -28 -13 -92 -33 -141 -46 l-88 -22 6 31 c4 18 11 104 15 192 7 134 12
168 31 207 40 85 122 143 260 184 l75 22 6 -23 c4 -13 10 -67 14 -121z m-669
85 c186 -57 235 -130 219 -323 -4 -47 -8 -86 -10 -86 -2 0 -19 9 -37 19 -18
11 -64 31 -103 46 -127 47 -165 109 -165 272 0 107 -5 103 96 72z m-198 -89
l23 0 -21 -30 c-21 -29 -36 -93 -60 -250 -33 -216 -120 -323 -298 -366 -31 -7
-76 -13 -98 -14 -47 0 -47 0 -64 144 -25 209 56 389 209 465 74 37 207 65 266
55 11 -2 30 -4 43 -4z m-3038 -36 c0 -3 -5 -14 -10 -25 -6 -10 -15 -69 -21
-131 -10 -118 -30 -178 -70 -214 -27 -25 -98 -64 -115 -64 -20 0 -46 81 -52
156 -8 125 45 199 184 255 72 29 84 33 84 23z m-287 -39 c26 -3 47 -9 47 -13
0 -4 -26 -41 -58 -82 -64 -84 -112 -114 -201 -125 l-54 -7 5 60 c4 64 34 116
85 149 26 17 88 32 113 28 8 -2 36 -6 63 -10z m2710 -32 c78 -7 79 -10 47 -97
-43 -113 -114 -173 -210 -177 -25 -1 -103 2 -175 6 -109 6 -136 5 -169 -9 -21
-9 -40 -16 -41 -16 -10 0 25 113 44 144 46 74 142 131 251 149 42 7 181 7 253
0z m-1900 -138 c109 -28 217 -101 278 -187 l20 -27 -63 -47 c-125 -92 -221
-127 -343 -127 -65 1 -103 8 -208 42 -135 43 -160 47 -201 31 -14 -5 -26 -7
-26 -4 0 4 14 35 31 71 90 189 317 299 512 248z m2581 -108 c63 -83 74 -187
30 -276 -27 -53 -91 -111 -123 -111 -9 0 -33 25 -54 56 -49 76 -50 123 -2 222
19 39 39 91 46 114 6 24 13 49 15 56 5 18 55 -17 88 -61z m-754 -88 c69 -35
106 -135 80 -213 -12 -37 -13 -37 -54 -31 -87 15 -115 48 -127 152 -5 43 -12
84 -15 92 -12 35 49 35 116 0z m-2724 -70 c28 -10 82 -23 120 -29 108 -17 159
-37 203 -82 41 -40 111 -166 111 -198 0 -13 -19 -24 -72 -41 -102 -33 -224
-34 -290 -1 -92 45 -144 147 -155 300 -6 81 -5 85 13 77 10 -4 42 -16 70 -26z
m1765 5 c39 -19 77 -69 85 -110 9 -47 -1 -126 -21 -163 l-16 -31 -62 48 c-89
69 -109 121 -87 225 11 56 11 56 43 50 18 -3 44 -12 58 -19z m2267 -156 c36
-11 87 -50 103 -80 21 -39 -68 -118 -134 -118 -14 0 -51 14 -83 32 -121 65
-150 77 -183 78 -34 0 -34 0 -15 21 28 32 107 68 166 77 56 9 91 7 146 -10z
m-3290 -4 c92 -9 135 -70 122 -169 -5 -40 -6 -40 -58 -49 -63 -11 -123 4 -158
39 -21 21 -45 87 -58 162 l-5 32 52 -5 c29 -3 76 -7 105 -10z m1739 -9 c71
-21 142 -72 179 -127 37 -54 56 -148 46 -218 -7 -42 -9 -45 -37 -44 -60 2
-221 25 -271 39 -98 28 -145 109 -160 279 -5 61 -4 80 7 88 19 13 173 2 236
-17z m720 -9 c-3 -8 -11 -34 -17 -58 -16 -58 -58 -135 -84 -151 -12 -8 -45
-22 -74 -32 -30 -9 -69 -31 -88 -47 l-34 -30 0 73 c1 192 60 254 244 258 47 1
57 -2 53 -13z m-1861 -77 c49 -23 94 -71 125 -130 l20 -41 -23 9 c-28 10 -90
9 -184 -1 -82 -10 -121 0 -184 45 l-42 31 33 35 c19 19 50 43 69 53 48 26 132
26 186 -1z m-688 -249 l32 -12 -72 -80 c-175 -193 -170 -189 -300 -201 -56 -5
-57 -5 -67 25 -15 44 -14 124 3 156 25 48 81 93 142 113 66 21 201 21 262 -1z
m2973 -16 c73 -22 132 -53 207 -109 l62 -47 -42 -61 c-56 -78 -143 -150 -209
-172 -73 -25 -178 -22 -259 6 -36 12 -119 46 -185 76 -66 30 -135 57 -152 60
-18 3 -33 9 -33 14 0 21 156 151 225 187 17 8 59 26 95 38 80 29 209 32 291 8z
m-1101 -171 c-1 -74 -17 -133 -47 -165 -10 -11 -49 -36 -88 -55 -38 -20 -82
-44 -97 -55 l-28 -19 0 94 c0 130 24 192 90 231 30 17 93 33 143 35 27 1 27 1
27 -66z m-1166 -110 c-18 -50 -17 -105 2 -248 27 -207 3 -297 -107 -399 -33
-31 -66 -56 -73 -56 -16 0 -83 48 -113 81 -12 13 -34 49 -50 79 -25 50 -28 65
-28 155 0 93 2 105 32 166 50 101 142 178 281 235 32 13 60 24 63 24 4 0 1
-17 -7 -37z m313 1 c30 -23 71 -88 87 -140 6 -20 2 -21 -84 -23 -50 -1 -108 3
-130 9 -46 12 -95 51 -116 92 -14 27 -14 31 3 44 10 7 41 23 68 34 63 25 125
20 172 -16z m-776 -163 c-44 -86 -125 -152 -204 -166 -52 -10 -117 16 -161 65
-56 63 -60 75 -30 99 47 37 96 46 182 33 96 -15 147 -14 192 2 19 8 36 12 38
11 2 -2 -6 -21 -17 -44z m2171 -11 c21 -124 -61 -222 -199 -236 -58 -6 -173
11 -173 25 0 4 9 16 21 27 12 10 36 49 55 86 48 94 91 124 199 138 87 11 89
10 97 -40z m401 -21 c36 -10 38 -12 32 -42 -22 -104 -90 -187 -169 -208 -48
-13 -171 -5 -236 15 -34 10 -41 16 -28 21 10 4 34 32 54 63 81 125 136 161
244 162 36 0 82 -5 103 -11z m-1758 -240 c95 -49 135 -115 134 -224 0 -42 -7
-88 -17 -115 -20 -51 -31 -53 -107 -20 -112 48 -145 113 -145 285 l0 112 47
-8 c26 -5 65 -19 88 -30z m1359 -74 c98 -53 99 -59 14 -95 -96 -41 -197 -17
-233 57 -22 46 -19 59 23 77 54 23 99 14 196 -39z"/>
</g>
</svg>
